<svg width="32" height="32" viewBox="0 0 32 32" fill="none" xmlns="http://www.w3.org/2000/svg">
<path d="M22.6139 14.8262L24.5291 19.8844H28.2574C28.4455 19.8771 28.6311 19.9279 28.7892 20.03C28.9472 20.1322 29.0699 20.2807 29.1403 20.4552C29.2108 20.6297 29.2256 20.8217 29.1828 21.0049C29.1401 21.1882 29.0416 21.3537 28.9012 21.4789L25.67 23.7358L27.4621 27.8532C27.5404 28.0418 27.5576 28.2501 27.5113 28.4489C27.465 28.6479 27.3577 28.8273 27.2042 28.9618C27.0507 29.0966 26.8589 29.1798 26.6557 29.1998C26.4525 29.2198 26.2482 29.1757 26.0714 29.0736L21.7353 26.6365L17.4017 29.0736C17.2249 29.1757 17.0205 29.2198 16.8173 29.1998C16.6141 29.1798 16.4224 29.0966 16.2689 28.9618C16.1154 28.8273 16.008 28.6479 15.9618 28.4489C15.9155 28.2501 15.9327 28.0418 16.011 27.8532L17.8043 23.7358L14.5731 21.4789C14.4323 21.3542 14.3333 21.1889 14.2901 21.0059C14.2468 20.8228 14.2611 20.6308 14.3312 20.4562C14.4013 20.2816 14.5237 20.1328 14.6816 20.0305C14.8394 19.9281 15.0251 19.8772 15.2131 19.8844H18.9415L20.8604 14.8262C20.9452 14.6675 21.0716 14.5348 21.2261 14.4422C21.3805 14.3497 21.5572 14.3008 21.7371 14.3008C21.9172 14.3008 22.0938 14.3497 22.2483 14.4422C22.4027 14.5348 22.529 14.6675 22.6139 14.8262Z" stroke="#6E27C6" stroke-width="1.86418" stroke-linecap="round" stroke-linejoin="round"/>
<path d="M4.96875 18.0195H10.5613" stroke="#6E27C6" stroke-width="1.86418" stroke-linecap="round" stroke-linejoin="round"/>
<path d="M10.5645 18.0201V8.69922" stroke="#6E27C6" stroke-width="1.86418" stroke-linecap="round" stroke-linejoin="round"/>
<path d="M14.291 15.223V10.5625" stroke="#6E27C6" stroke-width="1.86418" stroke-linecap="round" stroke-linejoin="round"/>
<path d="M6.83398 18.0203V12.4277" stroke="#6E27C6" stroke-width="1.86418" stroke-linecap="round" stroke-linejoin="round"/>
<path d="M9.63102 25.4766H3.10637C2.61197 25.4766 2.13779 25.2802 1.78819 24.9306C1.4386 24.581 1.24219 24.1068 1.24219 23.6124V3.10637C1.24219 2.61197 1.4386 2.13779 1.78819 1.78819C2.13779 1.4386 2.61197 1.24219 3.10637 1.24219H16.316C16.81 1.24229 17.2839 1.43852 17.6333 1.78777L21.2026 5.35706C21.5519 5.70654 21.7481 6.18035 21.7482 6.67442V9.63102" stroke="#6E27C6" stroke-width="1.86418" stroke-linecap="round" stroke-linejoin="round"/>
</svg>
