<svg width="32" height="32" viewBox="0 0 32 32" fill="none" xmlns="http://www.w3.org/2000/svg">
<path d="M14.9064 1.06152C21.5534 1.06152 27.0275 6.53558 27.0275 13.1826V27.8213C27.0275 28.7987 26.2454 29.7763 25.0724 29.7763H4.54486C3.56735 29.7763 2.58984 28.9942 2.58984 27.8213V13.1826C2.78535 6.53558 8.06384 1.06152 14.9064 1.06152Z" stroke="#9E9E9E" stroke-width="1.94186" stroke-miterlimit="10"/>
<path d="M11.9746 5.90414L12.562 5.75516C14.4012 5.28865 16.3278 5.28865 18.1671 5.75516L18.7544 5.90414" stroke="#9E9E9E" stroke-width="1.94186" stroke-miterlimit="10" stroke-linecap="round" stroke-linejoin="round"/>
<path d="M15.1546 25.8033C19.4511 25.8033 22.9342 22.3203 22.9342 18.0237C22.9342 13.7272 19.4511 10.2441 15.1546 10.2441C10.858 10.2441 7.375 13.7272 7.375 18.0237C7.375 22.3203 10.858 25.8033 15.1546 25.8033Z" stroke="#9E9E9E" stroke-width="1.94186"/>
<path d="M18.2779 23.0914H16.033L14.386 21.0457H14.281H12.6445V19.682H14.1237C14.4594 19.682 14.7462 19.6226 14.984 19.5036C15.2216 19.3848 15.3931 19.2203 15.4979 19.0106H12.6445V17.7832H15.4979C15.3861 17.5734 15.2112 17.409 14.9735 17.2901C14.7427 17.1713 14.4594 17.1117 14.1237 17.1117H12.6445V15.748H18.2674V17.1117H16.9876C17.1485 17.2657 17.2708 17.4895 17.3547 17.7832H18.2674V19.0106H17.3757C17.3058 19.3463 17.1765 19.647 16.9876 19.9128C16.7988 20.1786 16.554 20.3988 16.2533 20.5737L18.2779 23.0914Z" fill="#9E9E9E"/>
</svg>
