<svg width="26" height="32" viewBox="0 0 26 32" fill="none" xmlns="http://www.w3.org/2000/svg">
<g clip-path="url(#clip0_1060_4212)">
<path d="M25.8915 29.7523C25.8917 30.0447 25.7752 30.3253 25.5683 30.5321C25.3616 30.7391 25.081 30.8552 24.7883 30.8552H1.10276C0.493838 30.8552 0 30.3613 0 29.7523C0 29.1431 0.493838 28.6496 1.10276 28.6496H11.8428V25.2888C11.5441 25.3201 11.2441 25.3364 10.9438 25.3371C9.11176 25.3051 7.33302 24.7158 5.84445 23.6478C4.35589 22.5799 3.22785 21.0839 2.61062 19.359C2.46046 19.0414 2.47092 18.6713 2.63862 18.3627C2.80631 18.0538 3.11123 17.8437 3.45923 17.7966C6.46409 17.156 9.59268 18.0203 11.8425 20.1128V17.7667C8.80995 17.3892 6.18201 15.4855 4.87737 12.7219C3.57305 9.9582 3.77399 6.71916 5.40998 4.13768C7.046 1.55645 9.88929 -0.0078125 12.9453 -0.0078125C16.0013 -0.0078125 18.8446 1.55645 20.4805 4.13768C22.1166 6.71892 22.3174 9.95795 21.0131 12.7219C19.7086 15.4855 17.0806 17.3892 14.0481 17.7667V20.1264C16.2966 18.0313 19.4245 17.1621 22.4321 17.7966C22.7801 17.8437 23.0847 18.0538 23.2523 18.3627C23.4201 18.6713 23.4306 19.0414 23.2807 19.359C22.6632 21.0839 21.5352 22.5799 20.0466 23.6478C18.558 24.7158 16.7792 25.3051 14.9473 25.3367C14.6469 25.3362 14.347 25.3201 14.0482 25.2888V28.6496H24.7882C25.0805 28.6492 25.3612 28.7656 25.5679 28.9724C25.7751 29.1791 25.8915 29.4598 25.8915 29.7523ZM14.4668 23.1368C15.6755 23.2149 16.8814 22.9494 17.9456 22.3712C19.0096 21.7931 19.8884 20.9257 20.4804 19.8694C19.272 19.7906 18.066 20.0559 17.0016 20.634C15.9374 21.2124 15.0586 22.0799 14.4668 23.1368ZM11.43 23.1487C10.8395 22.0882 9.96017 21.2171 8.89404 20.6365C7.82823 20.0561 6.61929 19.79 5.40791 19.8694C5.99252 20.9349 6.87096 21.8107 7.93834 22.3918C9.00604 22.9731 10.2174 23.2359 11.43 23.1487ZM12.9453 15.6726C14.7265 15.6726 16.4345 14.9652 17.6938 13.7059C18.9536 12.4461 19.6609 10.7381 19.6609 8.95693C19.6609 7.17606 18.9536 5.46774 17.6938 4.20839C16.4345 2.94903 14.7265 2.2413 12.9453 2.2413C11.1641 2.2413 9.45613 2.94899 8.19678 4.20839C6.93712 5.46774 6.2297 7.17606 6.2297 8.95725C6.23154 10.7376 6.93984 12.4446 8.19859 13.7037C9.45763 14.9628 11.1647 15.6708 12.9453 15.6726Z" fill="#9E9E9E"/>
<path d="M15.6823 12.7213H13.4372L11.7902 10.6756H11.6853H10.0488V9.31186H11.528C11.8637 9.31186 12.1504 9.25243 12.3882 9.13354C12.626 9.01464 12.7973 8.85028 12.9022 8.64047H10.0488V7.41309H12.9022C12.7903 7.20328 12.6155 7.03893 12.3777 6.92004C12.1469 6.80114 11.8637 6.7417 11.528 6.7417H10.0488V5.37793H15.6717V6.7417H14.3919C14.5528 6.89556 14.6751 7.11935 14.759 7.41309H15.6717V8.64047H14.7801C14.7101 8.97617 14.5807 9.2769 14.3919 9.54266C14.2031 9.80842 13.9583 10.0287 13.6576 10.2036L15.6823 12.7213Z" fill="#9E9E9E"/>
</g>
<defs>
<clipPath id="clip0_1060_4212">
<rect width="25.8915" height="31.0697" fill="white" transform="translate(0 -0.0078125)"/>
</clipPath>
</defs>
</svg>
