<svg width="32" height="32" viewBox="0 0 32 32" fill="none" xmlns="http://www.w3.org/2000/svg">
<path d="M8.83203 28.1885V9.48431L11.6377 3.87305H19.1194L21.925 9.48431V28.1885H8.83203Z" stroke="#9E9E9E" stroke-width="1.87043" stroke-linecap="round" stroke-linejoin="round"/>
<path d="M18.6583 21.8498H16.3193L14.6034 19.7186H14.4941H12.7891V18.2978H14.3301C14.6799 18.2978 14.9787 18.2359 15.2263 18.112C15.474 17.9881 15.6526 17.8169 15.7619 17.5983H12.7891V16.3196H15.7619C15.6453 16.101 15.4631 15.9297 15.2155 15.8058C14.975 15.682 14.6799 15.6201 14.3301 15.6201H12.7891V14.1992H18.6473V15.6201H17.3139C17.4814 15.7803 17.6089 16.0135 17.6965 16.3196H18.6473V17.5983H17.7182C17.6454 17.948 17.5106 18.2613 17.3139 18.5382C17.1172 18.8151 16.8622 19.0447 16.5488 19.2267L18.6583 21.8498Z" fill="#9E9E9E"/>
<path d="M18.6579 21.8504V22.397H19.7985L19.0836 21.508L18.6579 21.8504ZM16.3188 21.8504L15.8932 22.1931L16.0573 22.397H16.3188V21.8504ZM14.603 19.7192L15.0286 19.3765L14.8645 19.1728H14.603V19.7192ZM12.7886 19.7192H12.2422V20.2657H12.7886V19.7192ZM12.7886 18.2983V17.7519H12.2422V18.2983H12.7886ZM15.7615 17.5989L16.2502 17.8432L16.6458 17.0524H15.7615V17.5989ZM12.7886 17.5989H12.2422V18.1453H12.7886V17.5989ZM12.7886 16.3201V15.7736H12.2422V16.3201H12.7886ZM15.7615 16.3201V16.8666H16.6722L16.2436 16.0629L15.7615 16.3201ZM15.2151 15.8064L14.9647 16.2923L14.9706 16.2952L15.2151 15.8064ZM12.7886 15.6206H12.2422V16.1671H12.7886V15.6206ZM12.7886 14.1998V13.6533H12.2422V14.1998H12.7886ZM18.6469 14.1998H19.1933V13.6533H18.6469V14.1998ZM18.6469 15.6206V16.1671H19.1933V15.6206H18.6469ZM17.3135 15.6206V15.0742H15.9515L16.9358 16.0155L17.3135 15.6206ZM17.696 16.3201L17.1706 16.4702L17.2838 16.8666H17.696V16.3201ZM18.6469 16.3201H19.1933V15.7736H18.6469V16.3201ZM18.6469 17.5989V18.1453H19.1933V17.5989H18.6469ZM17.7178 17.5989V17.0524H17.2735L17.1829 17.4874L17.7178 17.5989ZM16.5484 19.2273L16.2737 18.7549L15.7242 19.0744L16.1226 19.5698L16.5484 19.2273ZM18.6579 21.304H16.3188V22.397H18.6579V21.304ZM16.7445 21.5077L15.0286 19.3765L14.1773 20.0619L15.8932 22.1931L16.7445 21.5077ZM14.603 19.1728H14.4937V20.2657H14.603V19.1728ZM14.4937 19.1728H12.7886V20.2657H14.4937V19.1728ZM13.3351 19.7192V18.2983H12.2422V19.7192H13.3351ZM12.7886 18.8449H14.3297V17.7519H12.7886V18.8449ZM14.3297 18.8449C14.7425 18.8449 15.1294 18.7718 15.4704 18.6013L14.9815 17.6237C14.827 17.7011 14.6164 17.7519 14.3297 17.7519V18.8449ZM15.4704 18.6013C15.809 18.4319 16.0811 18.1815 16.2502 17.8432L15.2727 17.3545C15.2232 17.4535 15.1383 17.5454 14.9815 17.6237L15.4704 18.6013ZM15.7615 17.0524H12.7886V18.1453H15.7615V17.0524ZM13.3351 17.5989V16.3201H12.2422V17.5989H13.3351ZM12.7886 16.8666H15.7615V15.7736H12.7886V16.8666ZM16.2436 16.0629C16.0676 15.7327 15.7961 15.4859 15.4594 15.3176L14.9706 16.2952C15.1294 16.3746 15.2222 16.4704 15.2794 16.5773L16.2436 16.0629ZM15.4652 15.3206C15.1281 15.1469 14.7419 15.0742 14.3297 15.0742V16.1671C14.617 16.1671 14.821 16.2183 14.9647 16.2923L15.4652 15.3206ZM14.3297 15.0742H12.7886V16.1671H14.3297V15.0742ZM13.3351 15.6206V14.1998H12.2422V15.6206H13.3351ZM12.7886 14.7463H18.6469V13.6533H12.7886V14.7463ZM18.1004 14.1998V15.6206H19.1933V14.1998H18.1004ZM18.6469 15.0742H17.3135V16.1671H18.6469V15.0742ZM16.9358 16.0155C17.0118 16.0883 17.1003 16.2242 17.1706 16.4702L18.2214 16.1699C18.1168 15.804 17.9503 15.4735 17.6912 15.2257L16.9358 16.0155ZM17.696 16.8666H18.6469V15.7736H17.696V16.8666ZM18.1004 16.3201V17.5989H19.1933V16.3201H18.1004ZM18.6469 17.0524H17.7178V18.1453H18.6469V17.0524ZM17.1829 17.4874C17.1246 17.7673 17.0189 18.0101 16.868 18.2223L17.759 18.8553C18.0016 18.5138 18.1655 18.13 18.2529 17.7103L17.1829 17.4874ZM16.868 18.2223C16.7194 18.4314 16.5242 18.6093 16.2737 18.7549L16.8231 19.6999C17.1992 19.4812 17.5141 19.1999 17.759 18.8553L16.868 18.2223ZM16.1226 19.5698L18.2319 22.1929L19.0836 21.508L16.9743 18.8849L16.1226 19.5698Z" fill="#9E9E9E"/>
<path d="M19.1211 3.87305H25.6676L29.4084 9.48431H21.9267" stroke="#9E9E9E" stroke-width="2.02629" stroke-linecap="round" stroke-linejoin="round"/>
<path d="M8.83324 9.48431H1.35156L5.0924 3.87305H11.6389" stroke="#9E9E9E" stroke-width="2.02629" stroke-linecap="round" stroke-linejoin="round"/>
<path d="M1.35156 14.1611H8.62562" stroke="#9E9E9E" stroke-width="2.02629" stroke-linecap="round" stroke-linejoin="round"/>
<path d="M22.1348 14.1611H29.4079" stroke="#9E9E9E" stroke-width="2.02629" stroke-linecap="round" stroke-linejoin="round"/>
<path d="M1.35156 18.8379H8.62562" stroke="#9E9E9E" stroke-width="2.02629" stroke-linecap="round" stroke-linejoin="round"/>
<path d="M22.1348 18.8369H29.4079" stroke="#9E9E9E" stroke-width="2.02629" stroke-linecap="round" stroke-linejoin="round"/>
<path d="M1.35156 23.5127H8.62562" stroke="#9E9E9E" stroke-width="2.02629" stroke-linecap="round" stroke-linejoin="round"/>
<path d="M22.1348 23.5127H29.4079" stroke="#9E9E9E" stroke-width="2.02629" stroke-linecap="round" stroke-linejoin="round"/>
<path d="M8.83324 28.1896H1.35156V9.48535" stroke="#9E9E9E" stroke-width="2.02629" stroke-linecap="round" stroke-linejoin="round"/>
<path d="M21.9238 28.1896H29.4054V9.48535" stroke="#9E9E9E" stroke-width="2.02629" stroke-linecap="round" stroke-linejoin="round"/>
<path d="M21.925 9.48535H8.83203" stroke="#9E9E9E" stroke-width="2.02629" stroke-linecap="round" stroke-linejoin="round"/>
</svg>
