<svg width="17" height="17" viewBox="0 0 17 17" fill="none" xmlns="http://www.w3.org/2000/svg">
<g clip-path="url(#clip0_928_9868)">
<path fill-rule="evenodd" clip-rule="evenodd" d="M14.732 3.44316H3.00703C2.60231 3.44316 2.27422 3.77126 2.27422 4.17597V12.9698C2.27422 13.3745 2.60231 13.7026 3.00703 13.7026H14.732C15.1367 13.7026 15.4648 13.3745 15.4648 12.9698V4.17597C15.4648 3.77126 15.1367 3.44316 14.732 3.44316ZM3.00703 1.97754C1.79287 1.97754 0.808594 2.96182 0.808594 4.17597V12.9698C0.808594 14.1839 1.79287 15.1681 3.00703 15.1681H14.732C15.9462 15.1681 16.9305 14.1839 16.9305 12.9698V4.17597C16.9305 2.96182 15.9462 1.97754 14.732 1.97754H3.00703Z" fill="white"/>
<path fill-rule="evenodd" clip-rule="evenodd" d="M3.9101 5.1719C4.16921 4.86098 4.63128 4.81898 4.9422 5.07807L8.4008 7.96024C8.6726 8.18668 9.06731 8.18668 9.33913 7.96024L12.7977 5.07807C13.1086 4.81898 13.5707 4.86098 13.8298 5.1719C14.0889 5.48282 14.0469 5.9449 13.736 6.204L10.2773 9.08616C9.46206 9.76562 8.27783 9.76562 7.46251 9.08616L4.00393 6.204C3.69301 5.9449 3.65101 5.48282 3.9101 5.1719Z" fill="white"/>
</g>
<defs>
<clipPath id="clip0_928_9868">
<rect width="16.1219" height="16.1219" fill="white" transform="translate(0.808594 0.365234)"/>
</clipPath>
</defs>
</svg>
