<svg width="177" height="47" viewBox="0 0 177 47" fill="none" xmlns="http://www.w3.org/2000/svg">
<g clip-path="url(#clip0_928_9903)">
<path d="M28.1044 35.3508C32.1067 35.3508 35.3513 32.1062 35.3513 28.1039C35.3513 24.1015 32.1067 20.8569 28.1044 20.8569C24.102 20.8569 20.8574 24.1015 20.8574 28.1039C20.8574 32.1062 24.102 35.3508 28.1044 35.3508Z" fill="#B58BFA"/>
<path d="M45.2474 19.7041V15.8813C45.2481 15.6026 45.1936 15.3266 45.0869 15.0692C44.9802 14.8118 44.8235 14.5781 44.6259 14.3817L41.824 11.5805C41.6276 11.3828 41.394 11.2261 41.1365 11.1194C40.8791 11.0127 40.6031 10.9582 40.3244 10.959H36.5023C36.2237 10.9582 35.9476 11.0127 35.6902 11.1194C35.4328 11.2261 35.1991 11.3828 35.0027 11.5805L34.4145 12.168C31.3047 10.9336 27.9016 10.6365 24.6251 11.3136C21.3485 11.9906 18.3418 13.6121 15.9759 15.9779C13.6101 18.3437 11.9886 21.3504 11.3116 24.627C10.6346 27.9036 10.9316 31.3067 12.166 34.4164L11.5785 35.0047C11.3808 35.2011 11.2241 35.4348 11.1175 35.6922C11.0108 35.9496 10.9562 36.2256 10.957 36.5043V40.3271C10.9563 40.6057 11.0109 40.8817 11.1176 41.1392C11.2242 41.3966 11.3809 41.6302 11.5785 41.8267L14.3804 44.6279C14.5768 44.8256 14.8105 44.9823 15.0679 45.089C15.3253 45.1956 15.6014 45.2502 15.88 45.2494H19.7021C19.9808 45.2502 20.2568 45.1956 20.5142 45.089C20.7717 44.9823 21.0053 44.8256 21.2017 44.6279L21.79 44.0404C24.8997 45.2748 28.3028 45.5718 31.5794 44.8948C34.856 44.2178 37.8627 42.5963 40.2285 40.2305C42.5943 37.8646 44.2158 34.8579 44.8928 31.5814C45.5699 28.3048 45.2728 24.9017 44.0384 21.7919L44.6259 21.2037C44.8236 21.0073 44.9803 20.7736 45.087 20.5162C45.1937 20.2588 45.2482 19.9827 45.2474 19.7041ZM20.202 43.6282C20.0691 43.7603 19.8895 43.8347 19.7021 43.8353H15.88C15.6926 43.8347 15.5131 43.7603 15.3801 43.6282L12.5782 40.827C12.4456 40.6944 12.3711 40.5146 12.3711 40.3271V36.5043C12.3711 36.3168 12.4456 36.137 12.5782 36.0044L12.7861 35.7923C14.4476 39.084 17.1196 41.7572 20.4106 43.4203L20.202 43.6282ZM28.1022 36.7652C26.3892 36.7652 24.7147 36.2572 23.2904 35.3055C21.8662 34.3538 20.7561 33.0012 20.1005 31.4186C19.445 29.836 19.2735 28.0946 19.6077 26.4145C19.9419 24.7344 20.7667 23.1912 21.978 21.9799C23.1893 20.7687 24.7325 19.9438 26.4126 19.6096C28.0926 19.2754 29.8341 19.447 31.4166 20.1025C32.9992 20.758 34.3519 21.8681 35.3036 23.2924C36.2552 24.7167 36.7632 26.3912 36.7632 28.1042C36.7608 30.4005 35.8475 32.602 34.2238 34.2257C32.6 35.8494 30.3985 36.7627 28.1022 36.7652ZM43.8334 19.7041C43.8333 19.8916 43.7588 20.0714 43.6262 20.204L43.4184 20.4125C41.7562 17.1221 39.0843 14.4502 35.7939 12.788L36.006 12.5802C36.1389 12.4481 36.3185 12.3737 36.5058 12.373H40.328C40.5154 12.3737 40.6949 12.4481 40.8278 12.5802L43.6298 15.3814C43.7624 15.514 43.8369 15.6938 43.8369 15.8813L43.8334 19.7041Z" fill="#673BAF"/>
<g clip-path="url(#clip1_928_9903)">
<path d="M24.1447 32.9328V28.8547C24.1447 27.2119 23.096 25.7525 21.5389 25.2286L16.0021 23.3655C15.4832 23.1909 15.1336 22.7044 15.1336 22.1568V20.0801H9.45846V22.1568C9.45846 22.7044 9.10886 23.1909 8.58988 23.3655L3.05307 25.2286C1.49606 25.7525 0.447266 27.2119 0.447266 28.8547V32.9328C0.447266 33.2952 0.740969 33.5889 1.10329 33.5889H23.4887C23.851 33.5889 24.1447 33.2952 24.1447 32.9328Z" fill="#6E27C6"/>
<path d="M16.4905 23.5298L15.0182 23.3655C14.4992 23.1909 14.1496 22.7044 14.1496 22.1568V20.0801H9.45857V22.1568C9.45857 22.7044 9.10897 23.1909 8.58999 23.3655L7.94531 23.5824L11.123 26.0445L16.4905 23.5298Z" fill="#F1CCBD"/>
<path d="M13.1621 20.0801V23.1408C13.1621 23.6884 13.5117 24.1749 14.0307 24.3496L14.442 24.4879L16.487 23.5298L15.9988 23.3655C15.4798 23.1909 15.1302 22.7044 15.1302 22.1568V20.0801H13.1621Z" fill="#EAAD9C"/>
<path d="M12.2971 22.133C12.2971 22.133 10.2896 22.2466 9.4595 21.8431C7.36073 20.823 5.91406 18.6705 5.91406 16.1801V12.3489L12.2068 9.40527L18.4996 12.3489V16.1801C18.4996 18.5984 17.1355 20.698 15.1349 21.7516C14.2602 22.2122 13.3543 22.133 12.2971 22.133Z" fill="#F1CCBD"/>
<path d="M16.5309 11.3647V16.1801C16.5439 16.6055 16.5624 18.6548 15.0045 20.2886C12.8213 22.5782 9.61413 21.8794 9.45898 21.8428C9.93631 22.0718 10.6823 22.3601 11.6356 22.4472C11.6356 22.4472 11.9277 22.4728 12.2062 22.4728C15.6817 22.4728 18.499 19.6554 18.499 16.1801V12.3488L16.5309 11.3647Z" fill="#EAAD9C"/>
<path d="M18.9311 16.1158H18.5V13.6807H18.9311C19.6035 13.6807 20.1487 14.2258 20.1487 14.8983C20.1487 15.5707 19.6035 16.1158 18.9311 16.1158Z" fill="#F1CCBD"/>
<path d="M5.48321 16.1158H5.91429V13.6807H5.48321C4.81078 13.6807 4.26562 14.2258 4.26562 14.8983C4.26569 15.5707 4.81078 16.1158 5.48321 16.1158Z" fill="#EAAD9C"/>
<path d="M19.4873 4.85136C19.3169 3.26377 18.0549 1.98754 16.4699 1.79401C16.0334 1.74067 15.6115 1.77039 15.216 1.86742C15.0482 1.90862 14.8722 1.8501 14.7604 1.7183C14.1246 0.968463 13.1763 0.492188 12.1162 0.492188C11.0562 0.492188 10.1078 0.968463 9.47205 1.7183C9.36033 1.85003 9.18432 1.90862 9.01657 1.86742C8.6898 1.78725 8.34506 1.75307 7.98903 1.77361C6.22747 1.87542 4.80796 3.31114 4.72825 5.07382C4.67183 6.32165 5.27584 7.43152 6.21986 8.08544C6.36602 8.18667 6.4393 8.36406 6.4086 8.53915L5.91349 12.3488C7.79419 12.0812 9.98375 11.892 12.4229 11.9039C14.6845 11.9148 16.7258 12.0965 18.4991 12.3488C18.3284 11.3661 18.1576 9.40216 17.9869 8.41943C17.958 8.25312 18.0225 8.0838 18.1562 7.98068C19.0709 7.27525 19.6238 6.12372 19.4873 4.85136Z" fill="#6E27C6"/>
<path d="M15.2207 1.86579C15.2205 1.92155 15.2555 1.97062 15.3076 1.99037C16.5021 2.44421 17.3847 3.54266 17.5243 4.85249C17.6597 6.12308 17.1076 7.2729 16.1944 7.97793C16.0604 8.08139 15.9945 8.25051 16.0235 8.41734C16.1813 9.32574 16.3392 11.0728 16.4971 12.1081C17.1987 12.1758 17.8688 12.2569 18.5038 12.3472C18.333 11.3642 18.1623 9.39961 17.9915 8.41708C17.9626 8.25084 18.0272 8.08217 18.1609 7.97911C19.0749 7.27421 19.6278 6.12393 19.4924 4.85275C19.3242 3.27316 18.0751 1.99909 16.4997 1.79546C16.0543 1.73793 15.6238 1.76686 15.2207 1.86579Z" fill="#DAD9E4"/>
<path d="M21.5385 25.229L16.4899 23.5303L10.6441 26.2691C9.80771 26.661 9.27344 27.5013 9.27344 28.4249V33.0973V33.5893H23.4882C23.8506 33.5893 24.1443 33.2956 24.1443 32.9332V28.8551C24.1443 27.2123 23.0955 25.7529 21.5385 25.229Z" fill="#DBD8EA"/>
<path d="M19.5715 26.213C21.1285 26.7369 22.1773 28.1964 22.1773 29.8392V33.5893H23.4894C23.8517 33.5893 24.1454 33.2956 24.1454 32.9332V28.8551C24.1454 27.2123 23.0967 25.7529 21.5396 25.229L16.491 23.5303L14.4395 24.4915L19.5715 26.213Z" fill="#D0CDE4"/>
<path d="M20.6367 17.713V22.4364C20.6367 22.9799 21.0773 23.4205 21.6208 23.4205H22.2112C22.7546 23.4205 23.1952 23.8611 23.1952 24.4045V30.3088C23.1952 30.8522 23.6358 31.2928 24.1793 31.2928H24.9665C25.51 31.2928 25.9505 30.8522 25.9505 30.3088V24.4045C25.9505 23.8611 26.3911 23.4205 26.9346 23.4205H27.525C28.0685 23.4205 28.509 22.9799 28.509 22.4364V17.713C28.509 17.1696 28.0685 16.729 27.525 16.729H21.6208C21.0773 16.729 20.6367 17.1696 20.6367 17.713Z" fill="#EBF4FF"/>
<path d="M25.4039 33.0961H22.6973C22.2777 33.0961 21.9375 32.756 21.9375 32.3363V28.5889C21.9375 28.1693 22.2777 27.8291 22.6973 27.8291H25.4039C26.3984 27.8291 27.2045 28.6352 27.2045 29.6297V31.2955C27.2045 32.29 26.3984 33.0961 25.4039 33.0961Z" fill="#F1CCBD"/>
<path d="M25.4056 27.8291H23.4375C24.432 27.8291 25.2381 28.6353 25.2381 29.6297V31.2955C25.2381 32.2899 24.432 33.0961 23.4375 33.0961H25.4056C26.4001 33.0961 27.2062 32.2899 27.2062 31.2955V29.6297C27.2062 28.6353 26.4001 27.8291 25.4056 27.8291Z" fill="#EAAD9C"/>
<path d="M5.36757 29.6524C5.09578 29.6524 4.87555 29.8727 4.87555 30.1445V33.0966C4.87555 33.3684 5.09578 33.5886 5.36757 33.5886C5.63936 33.5886 5.85959 33.3684 5.85959 33.0966V30.1445C5.85959 29.8727 5.63929 29.6524 5.36757 29.6524ZM11.8398 31.2925C11.5681 31.2925 11.3478 31.5128 11.3478 31.7845C11.3478 32.0563 11.5681 32.2766 11.8398 32.2766C12.1115 32.2766 12.3318 32.0563 12.3318 31.7845C12.3318 31.5128 12.1115 31.2925 11.8398 31.2925ZM14.7919 31.2925C14.5202 31.2925 14.2999 31.5128 14.2999 31.7845C14.2999 32.0563 14.5202 32.2766 14.7919 32.2766C15.0637 32.2766 15.2839 32.0563 15.2839 31.7845C15.2839 31.5128 15.0637 31.2925 14.7919 31.2925ZM11.8398 28.3404C11.5681 28.3404 11.3478 28.5607 11.3478 28.8324C11.3478 29.1041 11.5681 29.3244 11.8398 29.3244C12.1115 29.3244 12.3318 29.1041 12.3318 28.8324C12.3318 28.5607 12.1115 28.3404 11.8398 28.3404ZM14.7919 28.3404C14.5202 28.3404 14.2999 28.5607 14.2999 28.8324C14.2999 29.1041 14.5202 29.3244 14.7919 29.3244C15.0637 29.3244 15.2839 29.1041 15.2839 28.8324C15.2839 28.5607 15.0637 28.3404 14.7919 28.3404ZM27.524 16.2367H21.6198C20.8059 16.2367 20.1437 16.8989 20.1437 17.7127V22.4361C20.1437 23.25 20.8059 23.9122 21.6198 23.9122H22.2102C22.4816 23.9122 22.7022 24.1329 22.7022 24.4042V25.2544C22.3908 25.0483 22.0527 24.8821 21.696 24.7618L16.1591 22.8988C15.7834 22.7721 15.5979 22.4168 15.6257 22.0378C17.5213 20.9267 18.8327 18.922 18.9769 16.606C19.8977 16.5809 20.6393 15.8245 20.6393 14.8977C20.6393 13.9754 19.9051 13.2219 18.9906 13.1896C18.9915 13.0933 18.9961 12.3552 18.9847 12.2764C18.9133 11.7824 18.8157 11.057 18.7312 10.3273C18.6477 9.60614 18.5613 8.8607 18.4748 8.35576C19.5633 7.50633 20.1242 6.17847 19.9761 4.79871C19.9238 4.31089 19.7817 3.84242 19.5537 3.40603C19.4279 3.16514 19.1305 3.07198 18.8898 3.19774C18.649 3.32357 18.5557 3.62075 18.6815 3.86164C18.8521 4.18828 18.9585 4.53879 18.9976 4.90367C19.1097 5.9482 18.6826 6.95271 17.8553 7.59083C17.5767 7.80561 17.4412 8.15527 17.5016 8.50343C17.5846 8.98102 17.6706 9.72305 17.7538 10.4405C17.8067 10.8976 17.8608 11.3644 17.9153 11.7735C16.0974 11.5421 14.2535 11.4205 12.4248 11.4116C10.4454 11.4028 8.45024 11.5242 6.48367 11.7751L6.89487 8.61115C6.95279 8.25184 6.7985 7.88788 6.49961 7.68077C5.65123 7.0931 5.1726 6.12677 5.21924 5.09576C5.28707 3.5949 6.51601 2.35127 8.01687 2.26454C8.31457 2.24742 8.61143 2.27445 8.8989 2.34504C9.24909 2.43084 9.61252 2.31263 9.84686 2.03624C10.4139 1.36762 11.2409 0.984041 12.1158 0.984041C12.9906 0.984041 13.8176 1.36762 14.3847 2.03631C14.619 2.31263 14.9821 2.43098 15.3328 2.3451C15.6839 2.25897 16.0462 2.23784 16.4098 2.28219C16.7093 2.31879 17.0006 2.40113 17.2755 2.52689C17.5227 2.63999 17.8145 2.53135 17.9275 2.28429C18.0407 2.03716 17.932 1.74523 17.6849 1.6322C17.318 1.46419 16.9291 1.3543 16.5291 1.30549C16.055 1.24744 15.5815 1.27387 15.1215 1.38376C14.3675 0.504092 13.2732 0 12.1158 0C10.9583 0 9.86411 0.504026 9.11007 1.38376C8.7345 1.29401 8.3477 1.25957 7.96012 1.28227C6.98631 1.33849 6.06919 1.75494 5.37747 2.45485C4.68556 3.15497 4.28027 4.07708 4.23625 5.05141C4.17458 6.4149 4.80365 7.6935 5.92007 8.47647C5.91312 8.51556 5.42353 12.2917 5.42202 12.3287C5.42116 12.3504 5.42031 13.1672 5.42103 13.1896C4.50653 13.2219 3.77237 13.9755 3.77237 14.8977C3.77237 15.8244 4.51381 16.5808 5.43455 16.606C5.47863 17.3204 5.63346 18.0169 5.89738 18.6817C5.9988 18.9373 6.28889 19.0556 6.53615 18.9575C6.78879 18.8573 6.91218 18.5712 6.81194 18.3187C6.54199 17.6384 6.40508 16.9188 6.40508 16.1799V12.7795C8.39461 12.5163 10.4153 12.3863 12.4201 12.3957C14.2815 12.4047 16.1584 12.5347 18.0066 12.7793V16.1799C18.0066 19.3785 15.4044 21.9807 12.2058 21.9807C10.5891 21.9807 9.03345 21.2982 7.93756 20.1082C7.75347 19.9084 7.44219 19.8955 7.2423 20.0796C7.04241 20.2637 7.02961 20.5749 7.21369 20.7749C7.72271 21.3276 8.31674 21.7863 8.96627 22.139V22.1567C8.96627 22.4932 8.75188 22.7914 8.43279 22.8988L2.89585 24.7619C1.13685 25.3541 -0.0449219 26.9989 -0.0449219 28.8547V33.0966C-0.0449219 33.3684 0.175307 33.5886 0.447099 33.5886C0.718891 33.5886 0.939119 33.3684 0.939119 33.0966V28.8547C0.939119 27.4218 1.85165 26.1518 3.20976 25.6945L7.85201 24.1324L10.1971 25.9494C9.32965 26.4615 8.78193 27.4054 8.78193 28.4242V33.0966C8.78193 33.3684 9.00216 33.5886 9.27395 33.5886C9.54574 33.5886 9.76597 33.3684 9.76597 33.0966V28.4242C9.76597 27.6947 10.1928 27.0233 10.8533 26.714L16.5207 24.0587L21.3817 25.6944C21.882 25.8632 22.3347 26.1491 22.7021 26.5246V27.3376H22.698C22.0078 27.3376 21.4463 27.8992 21.4463 28.5894V32.3368C21.4463 33.027 22.0078 33.5886 22.698 33.5886H25.4047C26.6688 33.5886 27.6972 32.5601 27.6972 31.296V29.6302C27.6972 28.7391 27.1859 27.9656 26.4414 27.5864V24.4042C26.4414 24.1329 26.6621 23.9122 26.9334 23.9122H27.5238C28.3377 23.9122 28.9999 23.25 28.9999 22.4361V17.7127C29.0001 16.8989 28.3379 16.2367 27.524 16.2367ZM18.9906 14.1747C19.3623 14.2057 19.6553 14.5181 19.6553 14.8977C19.6553 15.2772 19.3623 15.5896 18.9906 15.6207V14.1747ZM5.42097 15.6206C5.04933 15.5896 4.75635 15.2772 4.75635 14.8976C4.75635 14.518 5.04933 14.2056 5.42097 14.1746V15.6206ZM11.1867 25.4711L8.95728 23.7438C9.43743 23.5101 9.78342 23.0737 9.9036 22.5598C10.6358 22.8244 11.4145 22.9647 12.2059 22.9647C13.0771 22.9647 13.9104 22.7992 14.6763 22.4987C14.7577 22.9125 14.984 23.2804 15.31 23.5393L11.1867 25.4711ZM26.7134 29.6302V31.296C26.7134 32.0176 26.1264 32.6046 25.4049 32.6046H22.6982C22.5506 32.6046 22.4305 32.4844 22.4305 32.3368V28.5894C22.4305 28.4417 22.5506 28.3216 22.6982 28.3216H25.4049C26.1263 28.3216 26.7134 28.9086 26.7134 29.6302ZM28.0161 22.4361C28.0161 22.7075 27.7954 22.9282 27.524 22.9282H26.9336C26.1198 22.9282 25.4576 23.5904 25.4576 24.4042V27.3389C25.4101 27.3368 23.7382 27.3378 23.6863 27.3375V24.4042C23.6863 23.5904 23.0241 22.9282 22.2102 22.9282H21.6198C21.3485 22.9282 21.1278 22.7075 21.1278 22.4361V17.7127C21.1278 17.4414 21.3485 17.2207 21.6198 17.2207H27.524C27.7954 17.2207 28.0161 17.4414 28.0161 17.7127V22.4361ZM11.6238 6.60121V8.96015C11.6238 9.23195 11.844 9.45218 12.1158 9.45218C12.3876 9.45218 12.6078 9.23195 12.6078 8.96015V6.60121C12.6078 6.32942 12.3876 6.10919 12.1158 6.10919C11.844 6.10919 11.6238 6.32942 11.6238 6.60121ZM14.605 6.41228L13.6239 8.77122C13.5195 9.02208 13.6383 9.31008 13.8892 9.41445C14.1345 9.51647 14.4271 9.40317 14.5325 9.14909L15.5136 6.79015C15.618 6.53928 15.4992 6.25129 15.2483 6.14691C14.9974 6.04254 14.7094 6.16135 14.605 6.41228ZM15.568 15.9115V14.896C15.568 14.6242 15.3478 14.404 15.076 14.404C14.8042 14.404 14.584 14.6242 14.584 14.896V15.9115C14.584 16.1833 14.8042 16.4035 15.076 16.4035C15.3478 16.4035 15.568 16.1833 15.568 15.9115ZM22.6038 18.2048C22.332 18.2048 22.1118 18.425 22.1118 18.6968V21.4521C22.1118 21.7239 22.332 21.9441 22.6038 21.9441C22.8756 21.9441 23.0959 21.7239 23.0959 21.4521V18.6968C23.0959 18.425 22.8756 18.2048 22.6038 18.2048ZM8.98326 6.14691C8.73233 6.25129 8.61353 6.53922 8.7179 6.79015L9.69905 9.14909C9.80441 9.4031 10.0965 9.51666 10.3423 9.41445C10.5932 9.31008 10.712 9.02215 10.6077 8.77122L9.6265 6.41228C9.52212 6.16135 9.23413 6.0426 8.98326 6.14691ZM24.5719 18.2048C24.3001 18.2048 24.0799 18.425 24.0799 18.6968V21.4521C24.0799 21.7239 24.3001 21.9441 24.5719 21.9441C24.8437 21.9441 25.0639 21.7239 25.0639 21.4521V18.6968C25.0639 18.425 24.8437 18.2048 24.5719 18.2048ZM26.54 18.2048C26.2682 18.2048 26.048 18.425 26.048 18.6968V21.4521C26.048 21.7239 26.2682 21.9441 26.54 21.9441C26.8118 21.9441 27.032 21.7239 27.032 21.4521V18.6968C27.032 18.425 26.8118 18.2048 26.54 18.2048ZM12.2784 19.277C12.7773 19.2592 13.1517 19.0639 13.378 18.9032C13.5996 18.7459 13.6517 18.4388 13.4943 18.2172C13.3371 17.9957 13.0299 17.9435 12.8083 18.1009C12.7127 18.1687 12.5122 18.2841 12.2431 18.2937C11.9374 18.3045 11.7114 18.1774 11.6029 18.1006C11.381 17.9434 11.074 17.996 10.917 18.2177C10.7599 18.4394 10.8124 18.7466 11.0341 18.9036C11.2218 19.0364 11.7398 19.2963 12.2784 19.277ZM9.82764 15.9115V14.896C9.82764 14.6242 9.60741 14.404 9.33562 14.404C9.06382 14.404 8.84359 14.6242 8.84359 14.896V15.9115C8.84359 16.1833 9.06382 16.4035 9.33562 16.4035C9.60741 16.4035 9.82764 16.1833 9.82764 15.9115Z" fill="black"/>
</g>
<path d="M13.49 -6.46327V18.9714H36.7545V-6.02923H47.9527V53H36.7545V27.9994H13.49V53H2.29185V-6.02923L13.49 -6.46327Z" fill="#6E27C6" fill-opacity="0.1"/>
</g>
<path d="M63.7068 15.235V24.117H71.8309V15.3866H75.7414V36H71.8309V27.2696H63.7068V36H59.7964V15.3866L63.7068 15.235ZM82.1478 14.7803C82.7743 14.7803 83.2997 14.9925 83.7241 15.4169C84.1687 15.8413 84.391 16.3668 84.391 16.9933C84.391 17.6197 84.1687 18.1452 83.7241 18.5696C83.2997 18.994 82.7743 19.2062 82.1478 19.2062C81.5415 19.2062 81.0262 18.994 80.6018 18.5696C80.1774 18.1452 79.9652 17.6197 79.9652 16.9933C79.9652 16.3668 80.1774 15.8413 80.6018 15.4169C81.0262 14.9925 81.5415 14.7803 82.1478 14.7803ZM84.1182 21.2978V36H80.1774V21.2978H84.1182ZM95.9969 21.2978L96.7851 24.4504C96.1182 24.4504 95.3401 24.6424 94.4509 25.0264C93.5819 25.4104 92.7231 25.9762 91.8743 26.724V36H87.9335V21.2978H89.9948L91.2983 23.4501C91.9046 22.9246 92.6422 22.4396 93.5112 21.995C94.3802 21.5302 95.2088 21.2978 95.9969 21.2978ZM106.407 36.3638C103.86 36.3638 101.849 35.6665 100.374 34.2721C98.9192 32.8777 98.1916 31.0083 98.1916 28.6641C98.1916 26.3198 98.8484 24.4403 100.162 23.0257C101.496 21.6111 103.305 20.9037 105.588 20.9037C107.892 20.9037 109.58 21.6717 110.651 23.2076C111.742 24.7233 112.288 26.5219 112.288 28.6034V29.816H102.375C102.557 30.786 103.001 31.5641 103.709 32.1501C104.416 32.716 105.346 32.9989 106.498 32.9989C107.165 32.9989 107.761 32.9181 108.286 32.7564C108.832 32.5745 109.458 32.3219 110.166 31.9986L111.317 34.8481C110.63 35.3735 109.792 35.7575 108.801 36C107.831 36.2425 107.033 36.3638 106.407 36.3638ZM108.559 27.1787C108.357 26.1884 107.993 25.4609 107.468 24.9961C106.942 24.5111 106.285 24.2686 105.497 24.2686C104.689 24.2686 104.012 24.5212 103.466 25.0264C102.921 25.5114 102.567 26.2289 102.405 27.1787H108.559ZM122.44 24.0867C121.066 24.0867 120.106 24.5717 119.56 25.5417C119.035 26.5118 118.772 27.5121 118.772 28.5428C118.772 29.6947 119.015 30.7254 119.5 31.6348C119.985 32.5442 120.965 32.9989 122.44 32.9989C122.905 32.9989 123.39 32.8979 123.895 32.6958C124.421 32.4735 124.906 32.2209 125.35 31.938V25.1477C124.906 24.8445 124.421 24.5919 123.895 24.3898C123.39 24.1877 122.905 24.0867 122.44 24.0867ZM129.322 14.5985V36H127.26L126.169 34.5753C125.502 35.1411 124.714 35.5857 123.804 35.9091C122.915 36.2122 122.107 36.3638 121.379 36.3638C119.237 36.3638 117.59 35.616 116.438 34.1205C115.286 32.6251 114.71 30.7658 114.71 28.5428C114.71 26.3198 115.317 24.4605 116.529 22.9651C117.762 21.4696 119.439 20.7218 121.561 20.7218C122.107 20.7218 122.723 20.8229 123.41 21.025C124.097 21.2069 124.744 21.4696 125.35 21.8131V14.9319L129.322 14.5985ZM137.834 15.3866V36H133.923V15.3866H137.834ZM145.499 22.8741C146.166 22.2072 146.995 21.6818 147.985 21.2978C148.995 20.9138 149.895 20.7218 150.683 20.7218C152.684 20.7218 154.098 21.3079 154.927 22.48C155.776 23.6522 156.2 25.087 156.2 26.7846V36H152.259V26.9665C152.259 26.0369 152.037 25.3295 151.592 24.8445C151.148 24.3393 150.501 24.0867 149.652 24.0867C149.086 24.0867 148.49 24.2382 147.864 24.5414C147.257 24.8243 146.702 25.1578 146.196 25.5417V36H142.256V21.2978H144.317L145.499 22.8741ZM163.084 22.8741C163.75 22.2072 164.579 21.6818 165.569 21.2978C166.58 20.9138 167.479 20.7218 168.267 20.7218C170.268 20.7218 171.683 21.3079 172.511 22.48C173.36 23.6522 173.784 25.087 173.784 26.7846V36H169.843V26.9665C169.843 26.0369 169.621 25.3295 169.177 24.8445C168.732 24.3393 168.085 24.0867 167.236 24.0867C166.671 24.0867 166.074 24.2382 165.448 24.5414C164.842 24.8243 164.286 25.1578 163.781 25.5417V36H159.84V21.2978H161.901L163.084 22.8741Z" fill="#6E27C6"/>
<defs>
<clipPath id="clip0_928_9903">
<rect width="45.2492" height="45.2492" fill="white"/>
</clipPath>
<clipPath id="clip1_928_9903">
<rect width="33.5886" height="33.5886" fill="white" transform="translate(-2.31641)"/>
</clipPath>
</defs>
</svg>
