<svg width="78" height="16" viewBox="0 0 78 16" fill="none" xmlns="http://www.w3.org/2000/svg">
<path d="M2.84775 0.929876V6.94819H8.35255V1.03258H11.0023V15H8.35255V9.08439H2.84775V15H0.198044V1.03258L2.84775 0.929876ZM15.3432 0.621771C15.7677 0.621771 16.1237 0.765554 16.4113 1.05312C16.7125 1.34068 16.8631 1.69672 16.8631 2.12122C16.8631 2.54572 16.7125 2.90175 16.4113 3.18931C16.1237 3.47688 15.7677 3.62066 15.3432 3.62066C14.9324 3.62066 14.5832 3.47688 14.2956 3.18931C14.008 2.90175 13.8643 2.54572 13.8643 2.12122C13.8643 1.69672 14.008 1.34068 14.2956 1.05312C14.5832 0.765554 14.9324 0.621771 15.3432 0.621771ZM16.6783 5.03794V15H14.008V5.03794H16.6783ZM24.7272 5.03794L25.2613 7.17414C24.8094 7.17414 24.2822 7.30422 23.6796 7.5644C23.0908 7.82458 22.5088 8.208 21.9337 8.71466V15H19.2635V5.03794H20.6602L21.5435 6.4963C21.9543 6.14027 22.4541 5.81163 23.0429 5.51037C23.6317 5.19542 24.1932 5.03794 24.7272 5.03794ZM31.7807 15.2465C30.0553 15.2465 28.6928 14.7741 27.6932 13.8292C26.7073 12.8843 26.2143 11.6177 26.2143 10.0292C26.2143 8.44079 26.6593 7.16729 27.5494 6.20874C28.4532 5.25019 29.6788 4.77092 31.2261 4.77092C32.7872 4.77092 33.9306 5.29127 34.6564 6.33198C35.3958 7.359 35.7655 8.57772 35.7655 9.98816V10.8098H29.0489C29.1721 11.4671 29.4734 11.9943 29.9526 12.3914C30.4319 12.7748 31.0618 12.9665 31.8423 12.9665C32.2942 12.9665 32.6982 12.9117 33.0542 12.8022C33.4239 12.6789 33.8484 12.5078 34.3277 12.2887L35.1083 14.2195C34.6427 14.5755 34.0744 14.8357 33.4034 15C32.7461 15.1643 32.2052 15.2465 31.7807 15.2465ZM33.2391 9.02277C33.1021 8.35178 32.8557 7.85881 32.4996 7.54386C32.1436 7.21522 31.6986 7.05089 31.1645 7.05089C30.6168 7.05089 30.158 7.22206 29.7883 7.5644C29.4186 7.89305 29.1789 8.37917 29.0694 9.02277H33.2391ZM42.6449 6.92765C41.7138 6.92765 41.0633 7.2563 40.6936 7.91359C40.3376 8.57088 40.1596 9.24871 40.1596 9.94708C40.1596 10.7276 40.3239 11.426 40.6525 12.0422C40.9812 12.6584 41.6453 12.9665 42.6449 12.9665C42.9599 12.9665 43.2885 12.898 43.6309 12.7611C43.9869 12.6105 44.3156 12.4393 44.6168 12.2476V7.64656C44.3156 7.44116 43.9869 7.26999 43.6309 7.13306C43.2885 6.99612 42.9599 6.92765 42.6449 6.92765ZM47.3076 0.49853V15H45.9109L45.1714 14.0346C44.7195 14.418 44.1855 14.7193 43.5693 14.9384C42.9667 15.1438 42.419 15.2465 41.926 15.2465C40.4745 15.2465 39.3585 14.7398 38.578 13.7265C37.7974 12.7132 37.4072 11.4534 37.4072 9.94708C37.4072 8.44079 37.818 7.18098 38.6396 6.16766C39.4749 5.15434 40.6115 4.64768 42.0493 4.64768C42.419 4.64768 42.8367 4.71614 43.3022 4.85308C43.7678 4.97632 44.206 5.15434 44.6168 5.38713V0.724473L47.3076 0.49853ZM53.0753 1.03258V15H50.4256V1.03258H53.0753ZM58.2694 6.10604C58.7213 5.65415 59.2827 5.29812 59.9537 5.03794C60.6384 4.77776 61.2477 4.64768 61.7818 4.64768C63.1375 4.64768 64.096 5.04479 64.6574 5.83901C65.2326 6.63324 65.5201 7.60548 65.5201 8.75574V15H62.8499V8.87898C62.8499 8.24908 62.6993 7.76981 62.398 7.44116C62.0967 7.09882 61.6585 6.92765 61.0834 6.92765C60.7 6.92765 60.296 7.03035 59.8715 7.23576C59.4607 7.42747 59.0842 7.65341 58.7418 7.91359V15H56.0716V5.03794H57.4683L58.2694 6.10604ZM70.1844 6.10604C70.6363 5.65415 71.1977 5.29812 71.8687 5.03794C72.5534 4.77776 73.1627 4.64768 73.6968 4.64768C75.0524 4.64768 76.011 5.04479 76.5724 5.83901C77.1476 6.63324 77.4351 7.60548 77.4351 8.75574V15H74.7649V8.87898C74.7649 8.24908 74.6143 7.76981 74.313 7.44116C74.0117 7.09882 73.5735 6.92765 72.9984 6.92765C72.615 6.92765 72.211 7.03035 71.7865 7.23576C71.3757 7.42747 70.9992 7.65341 70.6568 7.91359V15H67.9866V5.03794H69.3833L70.1844 6.10604Z" fill="#6E27C6"/>
</svg>
