<svg width="42" height="42" viewBox="0 0 42 42" fill="none" xmlns="http://www.w3.org/2000/svg">
<g clip-path="url(#clip0_928_9827)">
<path d="M27.3154 17.7428C27.1637 17.1579 26.7167 16.6972 26.1492 16.5409C25.1205 16.2568 20.9957 16.2568 20.9957 16.2568C20.9957 16.2568 16.8709 16.2568 15.8422 16.5409C15.2747 16.6973 14.8277 17.1579 14.676 17.7428C14.4004 18.803 14.4004 21.015 14.4004 21.015C14.4004 21.015 14.4004 23.2271 14.676 24.2873C14.8277 24.8722 15.2747 25.3137 15.8422 25.47C16.8709 25.7541 20.9957 25.7541 20.9957 25.7541C20.9957 25.7541 25.1205 25.7541 26.1492 25.47C26.7167 25.3137 27.1637 24.8722 27.3154 24.2873C27.591 23.2271 27.591 21.015 27.591 21.015C27.591 21.015 27.591 18.803 27.3154 17.7428ZM19.6467 23.0234V19.0067L23.0942 21.0151L19.6467 23.0234Z" fill="#72737C"/>
</g>
<defs>
<clipPath id="clip0_928_9827">
<rect width="13.1906" height="13.1906" fill="white" transform="translate(14.4004 14.2773)"/>
</clipPath>
</defs>
</svg>
