<svg width="41" height="42" viewBox="0 0 41 42" fill="none" xmlns="http://www.w3.org/2000/svg">
<g clip-path="url(#clip0_928_9830)">
<path d="M25.9535 14.2773H14.6443C14.1261 14.2773 13.7051 14.6865 13.7051 15.1887V26.007C13.7051 26.5092 14.1261 26.9184 14.6443 26.9184H25.9535C26.4717 26.9184 26.8957 26.5092 26.8957 26.007V15.1887C26.8957 14.6865 26.4717 14.2773 25.9535 14.2773ZM17.6917 25.1125H15.7367V19.0798H17.6947V25.1125H17.6917ZM16.7142 18.2559C16.087 18.2559 15.5806 17.7677 15.5806 17.1695C15.5806 16.5714 16.087 16.0832 16.7142 16.0832C17.3384 16.0832 17.8478 16.5714 17.8478 17.1695C17.8478 17.7706 17.3413 18.2559 16.7142 18.2559ZM25.0201 25.1125H23.0651V22.178C23.0651 21.4782 23.0504 20.5781 22.0493 20.5781C21.0306 20.5781 20.8745 21.3399 20.8745 22.1272V25.1125H18.9195V19.0798H20.795V19.9037H20.8216C21.0836 19.4297 21.7225 18.9303 22.6735 18.9303C24.6521 18.9303 25.0201 20.1802 25.0201 21.8055V25.1125Z" fill="#72737C"/>
</g>
<defs>
<clipPath id="clip0_928_9830">
<rect width="13.1906" height="13.1906" fill="white" transform="translate(13.7051 14.2773)"/>
</clipPath>
</defs>
</svg>
