<svg width="41" height="42" viewBox="0 0 41 42" fill="none" xmlns="http://www.w3.org/2000/svg">
<g clip-path="url(#clip0_928_9824)">
<path d="M25.9305 17.8492C25.9388 17.977 25.9388 18.1048 25.9388 18.2327C25.9388 22.1314 23.2187 26.6237 18.2471 26.6237C16.7154 26.6237 15.2926 26.1397 14.0957 25.2997C14.3133 25.3271 14.5225 25.3363 14.7485 25.3363C16.0123 25.3363 17.1758 24.8706 18.1048 24.0762C16.9163 24.0489 15.9203 23.1997 15.5771 22.031C15.7445 22.0583 15.9119 22.0766 16.0877 22.0766C16.3304 22.0766 16.5732 22.0401 16.7991 21.9762C15.5604 21.7023 14.6313 20.5153 14.6313 19.0818V19.0453C14.9912 19.2644 15.4097 19.4014 15.8533 19.4196C15.1251 18.89 14.6481 17.9861 14.6481 16.9635C14.6481 16.4157 14.782 15.9135 15.0163 15.4752C16.3471 17.2648 18.3475 18.4335 20.5906 18.5614C20.5487 18.3422 20.5236 18.114 20.5236 17.8857C20.5236 16.2604 21.7289 14.9365 23.227 14.9365C24.0054 14.9365 24.7085 15.2926 25.2023 15.8678C25.8133 15.74 26.3991 15.4935 26.918 15.1557C26.7172 15.8405 26.2903 16.4157 25.7296 16.7809C26.2736 16.717 26.8009 16.5526 27.2863 16.3244C26.9181 16.9087 26.4578 17.4291 25.9305 17.8492Z" fill="#72737C"/>
</g>
<defs>
<clipPath id="clip0_928_9824">
<rect width="13.1906" height="13.1906" fill="white" transform="translate(14.0957 14.2773)"/>
</clipPath>
</defs>
</svg>
