<svg width="41" height="42" viewBox="0 0 41 42" fill="none" xmlns="http://www.w3.org/2000/svg">
<g clip-path="url(#clip0_928_9833)">
<path d="M20.6065 17.4907C18.735 17.4907 17.2254 19.0007 17.2254 20.8727C17.2254 22.7446 18.735 24.2545 20.6065 24.2545C22.4781 24.2545 23.9877 22.7446 23.9877 20.8727C23.9877 19.0007 22.4781 17.4907 20.6065 17.4907ZM20.6065 23.0713C19.3971 23.0713 18.4084 22.0853 18.4084 20.8727C18.4084 19.66 19.3942 18.674 20.6065 18.674C21.8189 18.674 22.8047 19.66 22.8047 20.8727C22.8047 22.0853 21.816 23.0713 20.6065 23.0713ZM24.9147 17.3524C24.9147 17.791 24.5615 18.1412 24.126 18.1412C23.6875 18.1412 23.3374 17.788 23.3374 17.3524C23.3374 16.9168 23.6905 16.5636 24.126 16.5636C24.5615 16.5636 24.9147 16.9168 24.9147 17.3524ZM27.154 18.153C27.104 17.0963 26.8627 16.1604 26.0888 15.3892C25.3178 14.618 24.382 14.3767 23.3256 14.3237C22.2368 14.2619 18.9734 14.2619 17.8846 14.3237C16.8311 14.3737 15.8953 14.6151 15.1214 15.3863C14.3474 16.1574 14.1091 17.0934 14.0561 18.1501C13.9943 19.2391 13.9943 22.5033 14.0561 23.5923C14.1061 24.649 14.3474 25.5849 15.1214 26.3561C15.8953 27.1273 16.8281 27.3686 17.8846 27.4216C18.9734 27.4834 22.2368 27.4834 23.3256 27.4216C24.382 27.3715 25.3178 27.1302 26.0888 26.3561C26.8597 25.5849 27.1011 24.649 27.154 23.5923C27.2158 22.5033 27.2158 19.242 27.154 18.153ZM25.7474 24.7608C25.5179 25.3377 25.0735 25.7821 24.4939 26.0147C23.6257 26.359 21.5659 26.2796 20.6065 26.2796C19.6472 26.2796 17.5844 26.3561 16.7193 26.0147C16.1425 25.7851 15.6981 25.3407 15.4657 24.7608C15.1214 23.8925 15.2008 21.8322 15.2008 20.8727C15.2008 19.9131 15.1243 17.8498 15.4657 16.9845C15.6952 16.4076 16.1395 15.9631 16.7193 15.7306C17.5873 15.3863 19.6472 15.4657 20.6065 15.4657C21.5659 15.4657 23.6287 15.3892 24.4939 15.7306C25.0706 15.9602 25.515 16.4046 25.7474 16.9845C26.0917 17.8528 26.0122 19.9131 26.0122 20.8727C26.0122 21.8322 26.0917 23.8955 25.7474 24.7608Z" fill="#72737C"/>
</g>
<defs>
<clipPath id="clip0_928_9833">
<rect width="13.1906" height="13.1906" fill="white" transform="translate(14.0098 14.2773)"/>
</clipPath>
</defs>
</svg>
