<svg width="17" height="17" viewBox="0 0 17 17" fill="none" xmlns="http://www.w3.org/2000/svg">
<g clip-path="url(#clip0_928_9861)">
<path fill-rule="evenodd" clip-rule="evenodd" d="M12.4774 11.5271C13.5099 10.0939 14.2159 8.51864 14.2159 6.92417C14.2159 4.07446 11.9057 1.76429 9.05603 1.76429C6.20629 1.76429 3.89612 4.07446 3.89612 6.92417C3.89612 8.51864 4.60207 10.0939 5.63461 11.5271C6.65938 12.9496 7.91944 14.1114 8.81785 14.8472C8.96518 14.9679 9.14679 14.9679 9.29415 14.8472C10.1926 14.1114 11.4526 12.9496 12.4774 11.5271ZM10.2283 15.9877C12.1332 14.4275 15.6902 10.9722 15.6902 6.92417C15.6902 3.26025 12.72 0.290039 9.05603 0.290039C5.39208 0.290039 2.42188 3.26025 2.42188 6.92417C2.42188 10.9722 5.97878 14.4275 7.88368 15.9877C8.57438 16.5533 9.53767 16.5533 10.2283 15.9877Z" fill="white"/>
<path fill-rule="evenodd" clip-rule="evenodd" d="M9.0559 5.44984C8.24169 5.44984 7.58167 6.10987 7.58167 6.92408C7.58167 7.73831 8.24169 8.39832 9.0559 8.39832C9.87013 8.39832 10.5302 7.73831 10.5302 6.92408C10.5302 6.10987 9.87013 5.44984 9.0559 5.44984ZM6.10742 6.92408C6.10742 5.29567 7.4275 3.97559 9.0559 3.97559C10.6843 3.97559 12.0044 5.29567 12.0044 6.92408C12.0044 8.55245 10.6843 9.87259 9.0559 9.87259C7.4275 9.87259 6.10742 8.55245 6.10742 6.92408Z" fill="white"/>
</g>
<defs>
<clipPath id="clip0_928_9861">
<rect width="16.1219" height="16.1219" fill="white" transform="translate(0.808594 0.290039)"/>
</clipPath>
</defs>
</svg>
