<svg width="17" height="17" viewBox="0 0 17 17" fill="none" xmlns="http://www.w3.org/2000/svg">
<g clip-path="url(#clip0_928_9865)">
<path fill-rule="evenodd" clip-rule="evenodd" d="M2.88973 1.34652C3.90522 0.33104 5.58468 0.450395 6.44632 1.59928L7.87666 3.50635C8.58124 4.44586 8.48787 5.76054 7.65742 6.59096L6.60289 7.64548C6.70509 7.91153 7.04151 8.4952 8.066 9.51973C9.09048 10.5442 9.67426 10.8807 9.94027 10.9829L10.9948 9.92833C11.8252 9.0979 13.1399 9.00447 14.0794 9.70916L15.9865 11.1394C17.1353 12.0011 17.2548 13.6805 16.2392 14.6961C15.9091 15.0262 15.8532 15.082 15.3022 15.633C14.7408 16.1945 13.5486 16.7193 12.3414 16.7717C10.4525 16.8539 7.88673 16.0152 4.72864 12.8571C1.57059 9.69908 0.731838 7.13327 0.813969 5.24432C0.859657 4.19354 1.19373 3.03946 1.95717 2.28787C2.50372 1.73254 2.5748 1.66146 2.88973 1.34652ZM2.38573 5.31266C2.32881 6.62204 2.88063 8.78425 5.8411 11.7447C8.80157 14.7052 10.9637 15.2569 12.2731 15.2C13.4954 15.1468 14.1511 14.5562 14.1898 14.5205L15.1268 13.5836C15.4652 13.2451 15.4255 12.6853 15.0425 12.398L13.1354 10.9677C12.8223 10.7328 12.384 10.764 12.1072 11.0408C11.6902 11.4579 11.4055 11.7467 10.8483 12.302C9.69062 13.4552 7.70903 11.3876 6.95356 10.6322C6.25929 9.93793 4.14354 7.89343 5.28269 6.74078C5.28495 6.73852 5.59177 6.43169 6.54495 5.4785C6.82176 5.2017 6.85291 4.76347 6.61803 4.4503L5.18772 2.54323C4.9005 2.16027 4.34069 2.12049 4.0022 2.45897C3.69064 2.77052 3.33807 3.1231 3.06618 3.39687C2.5066 3.96032 2.41569 4.62389 2.38573 5.31266Z" fill="white"/>
</g>
<defs>
<clipPath id="clip0_928_9865">
<rect width="16.1219" height="16.1219" fill="white" transform="translate(0.808594 0.655273)"/>
</clipPath>
</defs>
</svg>
